<svg xmlns="http://www.w3.org/2000/svg" xmlns:xlink="http://www.w3.org/1999/xlink" viewBox="0 0 1648.09 1058.68"><defs><style>.cls-1{isolation:isolate;}.cls-18,.cls-2,.cls-3{fill:none;}.cls-11,.cls-12,.cls-13,.cls-18,.cls-2,.cls-3,.cls-8{stroke-miterlimit:1;}.cls-2{stroke-width:20px;stroke:url(#New_Gradient_Swatch_6);}.cls-3{stroke:#000;stroke-width:2px;}.cls-4{fill:#221f20;}.cls-5{fill:url(#linear-gradient);}.cls-6{opacity:0.7;}.cls-16,.cls-6{mix-blend-mode:screen;}.cls-7{fill:url(#linear-gradient-9);}.cls-11,.cls-12,.cls-13,.cls-8{stroke:#2d2e83;}.cls-8{fill:url(#linear-gradient-17);}.cls-12,.cls-17,.cls-9{fill:#fff;}.cls-10,.cls-12,.cls-13,.cls-9{mix-blend-mode:overlay;}.cls-10,.cls-13{fill:#3b3b3b;}.cls-11{fill:url(#linear-gradient-18);}.cls-14{fill:url(#linear-gradient-19);}.cls-15,.cls-19,.cls-22{opacity:0.58;}.cls-15,.cls-22{mix-blend-mode:lighten;}.cls-15{fill:url(#radial-gradient);}.cls-16{opacity:0.49;}.cls-18{stroke:#764192;stroke-width:0.25px;}.cls-20{fill:#141229;}.cls-21{fill:url(#linear-gradient-20);}.cls-22{fill:url(#radial-gradient-2);}</style><linearGradient id="New_Gradient_Swatch_6" x1="463.27" y1="347.94" x2="1159.16" y2="347.94" gradientUnits="userSpaceOnUse"><stop offset="0" stop-color="#355ba6"/><stop offset="0.62" stop-color="#3c60aa"/><stop offset="0.63" stop-color="#405faa"/><stop offset="0.98" stop-color="#57c3e5"/></linearGradient><linearGradient id="linear-gradient" x1="1511.3" y1="1796.38" x2="444.93" y2="932.86" gradientUnits="userSpaceOnUse"><stop offset="0" stop-color="#fff" stop-opacity="0"/><stop offset="0.26" stop-color="#0b0b0b" stop-opacity="0.71"/><stop offset="0.63" stop-color="#fff" stop-opacity="0"/><stop offset="1" stop-opacity="0.39"/></linearGradient><linearGradient id="linear-gradient-9" x1="866.99" y1="1689.09" x2="1095.56" y2="1061.08" gradientUnits="userSpaceOnUse"><stop offset="0" stop-color="#2c53a1" stop-opacity="0.16"/><stop offset="0.29" stop-color="#3b60a8" stop-opacity="0.15"/><stop offset="0.39" stop-color="#738dc1" stop-opacity="0.11"/><stop offset="0.47" stop-color="#d3dbeb" stop-opacity="0.03"/><stop offset="0.49" stop-color="#fff" stop-opacity="0"/><stop offset="0.53" stop-color="#fff" stop-opacity="0.2"/><stop offset="0.57" stop-color="#fff" stop-opacity="0.39"/><stop offset="0.6" stop-color="#fff" stop-opacity="0.53"/><stop offset="0.63" stop-color="#fff" stop-opacity="0.62"/><stop offset="0.65" stop-color="#fff" stop-opacity="0.65"/><stop offset="0.66" stop-color="#fff" stop-opacity="0.65"/><stop offset="0.8" stop-color="#fff" stop-opacity="0.65"/><stop offset="1" stop-color="#fff" stop-opacity="0.77"/></linearGradient><linearGradient id="linear-gradient-17" x1="-431.29" y1="-53.96" x2="1452.54" y2="1313.81" gradientTransform="matrix(1, 0, 0, -1, -160.53, 1254.04)" gradientUnits="userSpaceOnUse"><stop offset="0" stop-color="#4bae43"/><stop offset="0.18" stop-color="#feec2e"/><stop offset="0.37" stop-color="#ea573c"/><stop offset="0.52" stop-color="#e82e89"/><stop offset="0.65" stop-color="#5a328a"/><stop offset="0.73" stop-color="#385da8"/><stop offset="0.84" stop-color="#1ab9dc"/><stop offset="1" stop-color="#4bae43"/></linearGradient><linearGradient id="linear-gradient-18" x1="-325.15" y1="-53.96" x2="1558.67" y2="1313.81" xlink:href="#linear-gradient-17"/><linearGradient id="linear-gradient-19" x1="651.53" y1="439.36" x2="680.38" y2="439.36" gradientUnits="userSpaceOnUse"><stop offset="0" stop-color="#3f4b9b"/><stop offset="0.62" stop-color="#81549d"/><stop offset="0.98" stop-color="#7c519c"/></linearGradient><radialGradient id="radial-gradient" cx="830.67" cy="861.83" r="21.7" gradientTransform="translate(-160.53 28.21) scale(1 0.49)" gradientUnits="userSpaceOnUse"><stop offset="0.37" stop-color="#fff" stop-opacity="0"/><stop offset="0.61" stop-color="#fff" stop-opacity="0.01"/><stop offset="0.7" stop-color="#fff" stop-opacity="0.03"/><stop offset="0.76" stop-color="#fff" stop-opacity="0.08"/><stop offset="0.81" stop-color="#fff" stop-opacity="0.15"/><stop offset="0.86" stop-color="#fff" stop-opacity="0.23"/><stop offset="0.9" stop-color="#fff" stop-opacity="0.34"/><stop offset="0.93" stop-color="#fff" stop-opacity="0.47"/><stop offset="0.96" stop-color="#fff" stop-opacity="0.61"/><stop offset="0.99" stop-color="#fff" stop-opacity="0.78"/><stop offset="1" stop-color="#fff" stop-opacity="0.82"/></radialGradient><linearGradient id="linear-gradient-20" x1="938.38" y1="435.35" x2="967.23" y2="435.35" xlink:href="#linear-gradient-19"/><radialGradient id="radial-gradient-2" cx="1117.52" cy="857.81" r="21.7" gradientTransform="translate(-160.53 26.16) scale(1 0.49)" xlink:href="#radial-gradient"/></defs><title>CodeWave</title><g class="cls-1"><g id="Warstwa_1" data-name="Warstwa 1"><circle class="cls-2" cx="811.22" cy="347.94" r="337.94"/><path class="cls-3" d="M362.39,1426.29v19.91l-26,5.7,13-60.68H379l-1.54,59.52c-20.77,11.49-48.06,19.71-81.32,19.71-74.61,0-134.56-44-134.56-134.46,0-91.72,64.51-134.45,137.24-134.45,29.31,0,52.89,6.56,75.88,19.15l1.55,60.08H346.7l-13.31-61.24,26,6v21.4c-18.45-16.62-34-23.49-51.47-23.49-41.39,0-77.74,33.69-77.74,112.85,0,78.89,34.89,112,75.87,112C325.3,1448.29,344.23,1440.3,362.39,1426.29Z" transform="translate(-160.53 -412.77)"/><path class="cls-3" d="M398.78,1384c0-50,36.07-82.93,82.64-82.93,46.39,0,82.63,32.21,82.63,82.93s-32.25,84.21-82.63,84.21C430.62,1468.17,398.78,1434,398.78,1384Zm110.17.71c0-46.18-9.32-66.65-27.53-66.65-18.4,0-27.53,20.47-27.53,66.65,0,46.41,9.13,66.51,27.53,66.51C499.63,1451.18,509,1431.08,509,1384.67Z" transform="translate(-160.53 -412.77)"/><path class="cls-3" d="M673.91,1440c15.65,0,26.57-11.62,36.84-27.53l3.87,5.26c-16.12,34.81-35.87,50.49-64.77,50.49-36.88,0-65-29.1-65-82.15s34.92-85,71.65-85c28.18,0,41.77,15.47,56.81,44.37l-3.25,6.34c-12.77-15.4-22-23.19-35.33-23.19-19.71,0-34.75,18.35-34.75,56.82C640,1421.13,653.89,1440,673.91,1440Zm87.87,8.15v15.14L698.15,1467,694,1438V1330l1.91-3.52v-67.91l-22.82-3.25v-13.74l68.8-14.64,5.26,3.31-1.3,45.5v187.5L723.7,1439.6Z" transform="translate(-160.53 -412.77)"/><path class="cls-3" d="M929.19,1369.75a70.81,70.81,0,0,1-1.81,17.51H800.05v-17.18h61c15.62,0,19.67-5.84,19.67-20.35,0-21.36-10.22-31.94-22-31.94-13.55,0-25.89,14.75-25.89,61.74,0,39.68,19.65,57.58,44,57.58,17.54,0,29.61-7.32,39.45-17.47l11.24,10.56c-13.36,25.44-36.76,38-68.25,38-47.36,0-81.06-31-81.06-83.47,0-54.24,41.82-83.67,83.81-83.67C904.86,1301,929.19,1330.38,929.19,1369.75Z" transform="translate(-160.53 -412.77)"/><path class="cls-3" d="M995.89,1235.36l-54.54-5.81v-20.8h120.23v20.8l-52.63,5.81Zm130.63-26.61H1166l57.53,201.65L1201,1451.48l69-242.73h24.67L1218.59,1464h-37.86l-61.23-197.41,16.59-12.58-63.86,210h-37.74l-76.37-255.24h68.72l51.5,201.65-23.7,41.08Zm11.87,26.61-47.35-5.81v-20.8h116v20.8l-47.81,5.81Zm133.24,0-36.2-5.81v-20.8h81.88v20.8l-35.42,5.81Z" transform="translate(-160.53 -412.77)"/><path class="cls-3" d="M1391.33,1372.59c13.43-3.94,36.51-10,51.84-13.66v13.59c-15.35,3.87-32.9,8.64-42.43,13-14.73,6.22-24.32,17.17-24.32,32.48,0,16.3,8.57,23.84,19.55,23.84,6.22,0,11.32-2.59,21.72-10.19l13.08-9.81,3.38,4.72-13.66,14.84c-15.76,16.7-25.89,26.75-49.49,26.75-25.16,0-42.66-14.84-42.66-41.61C1328.34,1403.41,1341.15,1387.13,1391.33,1372.59Zm24.74,64v-81.46c0-28.83-5.59-37.34-26.36-37.34-8,0-16.31,1-30.46,4.68l22.41-12.67-2.36,22.58c-.82,21.64-11.33,30.37-23.87,30.37-11.6,0-19.39-5.58-21.92-16.3,1.72-27.07,27.91-45.42,74.77-45.42,41.73,0,58.23,17.64,58.23,61.22v73c0,6.42,2.68,9.51,7.34,9.51,3.42,0,6.06-1.75,9.87-7.15l8.62,5.75c-7.8,17.76-19.41,24.57-39.15,24.57C1431.07,1467.9,1418.88,1456.29,1416.07,1436.59Z" transform="translate(-160.53 -412.77)"/><path class="cls-3" d="M1511.76,1326.21l-29.54-5.77V1306h92.41v14.48l-29.6,5.77Zm35.53-20.25,42.54,115.76L1568,1457l51.21-151H1642l-60.39,157.82h-24.84L1491,1306Zm72.48,19.54-27.14-5.06V1306H1654v14.48l-26.76,5.06Z" transform="translate(-160.53 -412.77)"/><path class="cls-3" d="M1807.62,1369.75a70.84,70.84,0,0,1-1.8,17.51H1678.48v-17.18h61c15.62,0,19.67-5.84,19.67-20.35,0-21.36-10.22-31.94-22-31.94-13.55,0-25.89,14.75-25.89,61.74,0,39.68,19.65,57.58,44,57.58,17.54,0,29.62-7.32,39.45-17.47l11.24,10.56c-13.36,25.44-36.76,38-68.25,38-47.35,0-81.06-31-81.06-83.47,0-54.24,41.82-83.67,83.81-83.67C1783.29,1301,1807.62,1330.38,1807.62,1369.75Z" transform="translate(-160.53 -412.77)"/><path class="cls-4" d="M362.39,1426.29v19.91l-26,5.7,13-60.68H379l-1.54,59.52c-20.77,11.49-48.06,19.71-81.32,19.71-74.61,0-134.56-44-134.56-134.46,0-91.72,64.51-134.45,137.24-134.45,29.31,0,52.89,6.56,75.88,19.15l1.55,60.08H346.7l-13.31-61.24,26,6v21.4c-18.45-16.62-34-23.49-51.47-23.49-41.39,0-77.74,33.69-77.74,112.85,0,78.89,34.89,112,75.87,112C325.3,1448.29,344.23,1440.3,362.39,1426.29Z" transform="translate(-160.53 -412.77)"/><path class="cls-4" d="M398.78,1384c0-50,36.07-82.93,82.64-82.93,46.39,0,82.63,32.21,82.63,82.93s-32.25,84.21-82.63,84.21C430.62,1468.17,398.78,1434,398.78,1384Zm110.17.71c0-46.18-9.32-66.65-27.53-66.65-18.4,0-27.53,20.47-27.53,66.65,0,46.41,9.13,66.51,27.53,66.51C499.63,1451.18,509,1431.08,509,1384.67Z" transform="translate(-160.53 -412.77)"/><path class="cls-4" d="M673.91,1440c15.65,0,26.57-11.62,36.84-27.53l3.87,5.26c-16.12,34.81-35.87,50.49-64.77,50.49-36.88,0-65-29.1-65-82.15s34.92-85,71.65-85c28.18,0,41.77,15.47,56.81,44.37l-3.25,6.34c-12.77-15.4-22-23.19-35.33-23.19-19.71,0-34.75,18.35-34.75,56.82C640,1421.13,653.89,1440,673.91,1440Zm87.87,8.15v15.14L698.15,1467,694,1438V1330l1.91-3.52v-67.91l-22.82-3.25v-13.74l68.8-14.64,5.26,3.31-1.3,45.5v187.5L723.7,1439.6Z" transform="translate(-160.53 -412.77)"/><path class="cls-4" d="M929.19,1369.75a70.81,70.81,0,0,1-1.81,17.51H800.05v-17.18h61c15.62,0,19.67-5.84,19.67-20.35,0-21.36-10.22-31.94-22-31.94-13.55,0-25.89,14.75-25.89,61.74,0,39.68,19.65,57.58,44,57.58,17.54,0,29.61-7.32,39.45-17.47l11.24,10.56c-13.36,25.44-36.76,38-68.25,38-47.36,0-81.06-31-81.06-83.47,0-54.24,41.82-83.67,83.81-83.67C904.86,1301,929.19,1330.38,929.19,1369.75Z" transform="translate(-160.53 -412.77)"/><path class="cls-4" d="M995.89,1235.36l-54.54-5.81v-20.8h120.23v20.8l-52.63,5.81Zm130.63-26.61H1166l57.53,201.65L1201,1451.48l69-242.73h24.67L1218.59,1464h-37.86l-61.23-197.41,16.59-12.58-63.86,210h-37.74l-76.37-255.24h68.72l51.5,201.65-23.7,41.08Zm11.87,26.61-47.35-5.81v-20.8h116v20.8l-47.81,5.81Zm133.24,0-36.2-5.81v-20.8h81.88v20.8l-35.42,5.81Z" transform="translate(-160.53 -412.77)"/><path class="cls-4" d="M1391.33,1372.59c13.43-3.94,36.51-10,51.84-13.66v13.59c-15.35,3.87-32.9,8.64-42.43,13-14.73,6.22-24.32,17.17-24.32,32.48,0,16.3,8.57,23.84,19.55,23.84,6.22,0,11.32-2.59,21.72-10.19l13.08-9.81,3.38,4.72-13.66,14.84c-15.76,16.7-25.89,26.75-49.49,26.75-25.16,0-42.66-14.84-42.66-41.61C1328.34,1403.41,1341.15,1387.13,1391.33,1372.59Zm24.74,64v-81.46c0-28.83-5.59-37.34-26.36-37.34-8,0-16.31,1-30.46,4.68l22.41-12.67-2.36,22.58c-.82,21.64-11.33,30.37-23.87,30.37-11.6,0-19.39-5.58-21.92-16.3,1.72-27.07,27.91-45.42,74.77-45.42,41.73,0,58.23,17.64,58.23,61.22v73c0,6.42,2.68,9.51,7.34,9.51,3.42,0,6.06-1.75,9.87-7.15l8.62,5.75c-7.8,17.76-19.41,24.57-39.15,24.57C1431.07,1467.9,1418.88,1456.29,1416.07,1436.59Z" transform="translate(-160.53 -412.77)"/><path class="cls-4" d="M1511.76,1326.21l-29.54-5.77V1306h92.41v14.48l-29.6,5.77Zm35.53-20.25,42.54,115.76L1568,1457l51.21-151H1642l-60.39,157.82h-24.84L1491,1306Zm72.48,19.54-27.14-5.06V1306H1654v14.48l-26.76,5.06Z" transform="translate(-160.53 -412.77)"/><path class="cls-4" d="M1807.62,1369.75a70.84,70.84,0,0,1-1.8,17.51H1678.48v-17.18h61c15.62,0,19.67-5.84,19.67-20.35,0-21.36-10.22-31.94-22-31.94-13.55,0-25.89,14.75-25.89,61.74,0,39.68,19.65,57.58,44,57.58,17.54,0,29.62-7.32,39.45-17.47l11.24,10.56c-13.36,25.44-36.76,38-68.25,38-47.35,0-81.06-31-81.06-83.47,0-54.24,41.82-83.67,83.81-83.67C1783.29,1301,1807.62,1330.38,1807.62,1369.75Z" transform="translate(-160.53 -412.77)"/><path class="cls-5" d="M362.39,1426.29v19.91l-26,5.7,13-60.68H379l-1.54,59.52c-20.77,11.49-48.06,19.71-81.32,19.71-74.61,0-134.56-44-134.56-134.46,0-91.72,64.51-134.45,137.24-134.45,29.31,0,52.89,6.56,75.88,19.15l1.55,60.08H346.7l-13.31-61.24,26,6v21.4c-18.45-16.62-34-23.49-51.47-23.49-41.39,0-77.74,33.69-77.74,112.85,0,78.89,34.89,112,75.87,112C325.3,1448.29,344.23,1440.3,362.39,1426.29Z" transform="translate(-160.53 -412.77)"/><path class="cls-5" d="M398.78,1384c0-50,36.07-82.93,82.64-82.93,46.39,0,82.63,32.21,82.63,82.93s-32.25,84.21-82.63,84.21C430.62,1468.17,398.78,1434,398.78,1384Zm110.17.71c0-46.18-9.32-66.65-27.53-66.65-18.4,0-27.53,20.47-27.53,66.65,0,46.41,9.13,66.51,27.53,66.51C499.63,1451.18,509,1431.08,509,1384.67Z" transform="translate(-160.53 -412.77)"/><path class="cls-5" d="M673.91,1440c15.65,0,26.57-11.62,36.84-27.53l3.87,5.26c-16.12,34.81-35.87,50.49-64.77,50.49-36.88,0-65-29.1-65-82.15s34.92-85,71.65-85c28.18,0,41.77,15.47,56.81,44.37l-3.25,6.34c-12.77-15.4-22-23.19-35.33-23.19-19.71,0-34.75,18.35-34.75,56.82C640,1421.13,653.89,1440,673.91,1440Zm87.87,8.15v15.14L698.15,1467,694,1438V1330l1.91-3.52v-67.91l-22.82-3.25v-13.74l68.8-14.64,5.26,3.31-1.3,45.5v187.5L723.7,1439.6Z" transform="translate(-160.53 -412.77)"/><path class="cls-5" d="M929.19,1369.75a70.81,70.81,0,0,1-1.81,17.51H800.05v-17.18h61c15.62,0,19.67-5.84,19.67-20.35,0-21.36-10.22-31.94-22-31.94-13.55,0-25.89,14.75-25.89,61.74,0,39.68,19.65,57.58,44,57.58,17.54,0,29.61-7.32,39.45-17.47l11.24,10.56c-13.36,25.44-36.76,38-68.25,38-47.36,0-81.06-31-81.06-83.47,0-54.24,41.82-83.67,83.81-83.67C904.86,1301,929.19,1330.38,929.19,1369.75Z" transform="translate(-160.53 -412.77)"/><path class="cls-5" d="M995.89,1235.36l-54.54-5.81v-20.8h120.23v20.8l-52.63,5.81Zm130.63-26.61H1166l57.53,201.65L1201,1451.48l69-242.73h24.67L1218.59,1464h-37.86l-61.23-197.41,16.59-12.58-63.86,210h-37.74l-76.37-255.24h68.72l51.5,201.65-23.7,41.08Zm11.87,26.61-47.35-5.81v-20.8h116v20.8l-47.81,5.81Zm133.24,0-36.2-5.81v-20.8h81.88v20.8l-35.42,5.81Z" transform="translate(-160.53 -412.77)"/><path class="cls-5" d="M1391.33,1372.59c13.43-3.94,36.51-10,51.84-13.66v13.59c-15.35,3.87-32.9,8.64-42.43,13-14.73,6.22-24.32,17.17-24.32,32.48,0,16.3,8.57,23.84,19.55,23.84,6.22,0,11.32-2.59,21.72-10.19l13.08-9.81,3.38,4.72-13.66,14.84c-15.76,16.7-25.89,26.75-49.49,26.75-25.16,0-42.66-14.84-42.66-41.61C1328.34,1403.41,1341.15,1387.13,1391.33,1372.59Zm24.74,64v-81.46c0-28.83-5.59-37.34-26.36-37.34-8,0-16.31,1-30.46,4.68l22.41-12.67-2.36,22.58c-.82,21.64-11.33,30.37-23.87,30.37-11.6,0-19.39-5.58-21.92-16.3,1.72-27.07,27.91-45.42,74.77-45.42,41.73,0,58.23,17.64,58.23,61.22v73c0,6.42,2.68,9.51,7.34,9.51,3.42,0,6.06-1.75,9.87-7.15l8.62,5.75c-7.8,17.76-19.41,24.57-39.15,24.57C1431.07,1467.9,1418.88,1456.29,1416.07,1436.59Z" transform="translate(-160.53 -412.77)"/><path class="cls-5" d="M1511.76,1326.21l-29.54-5.77V1306h92.41v14.48l-29.6,5.77Zm35.53-20.25,42.54,115.76L1568,1457l51.21-151H1642l-60.39,157.82h-24.84L1491,1306Zm72.48,19.54-27.14-5.06V1306H1654v14.48l-26.76,5.06Z" transform="translate(-160.53 -412.77)"/><path class="cls-5" d="M1807.62,1369.75a70.84,70.84,0,0,1-1.8,17.51H1678.48v-17.18h61c15.62,0,19.67-5.84,19.67-20.35,0-21.36-10.22-31.94-22-31.94-13.55,0-25.89,14.75-25.89,61.74,0,39.68,19.65,57.58,44,57.58,17.54,0,29.62-7.32,39.45-17.47l11.24,10.56c-13.36,25.44-36.76,38-68.25,38-47.35,0-81.06-31-81.06-83.47,0-54.24,41.82-83.67,83.81-83.67C1783.29,1301,1807.62,1330.38,1807.62,1369.75Z" transform="translate(-160.53 -412.77)"/><g class="cls-6"><path class="cls-7" d="M362.39,1426.29v19.91l-26,5.7,13-60.68H379l-1.54,59.52c-20.77,11.49-48.06,19.71-81.32,19.71-74.61,0-134.56-44-134.56-134.46,0-91.72,64.51-134.45,137.24-134.45,29.31,0,52.89,6.56,75.88,19.15l1.55,60.08H346.7l-13.31-61.24,26,6v21.4c-18.45-16.62-34-23.49-51.47-23.49-41.39,0-77.74,33.69-77.74,112.85,0,78.89,34.89,112,75.87,112C325.3,1448.29,344.23,1440.3,362.39,1426.29Z" transform="translate(-160.53 -412.77)"/><path class="cls-7" d="M398.78,1384c0-50,36.07-82.93,82.64-82.93,46.39,0,82.63,32.21,82.63,82.93s-32.25,84.21-82.63,84.21C430.62,1468.17,398.78,1434,398.78,1384Zm110.17.71c0-46.18-9.32-66.65-27.53-66.65-18.4,0-27.53,20.47-27.53,66.65,0,46.41,9.13,66.51,27.53,66.51C499.63,1451.18,509,1431.08,509,1384.67Z" transform="translate(-160.53 -412.77)"/><path class="cls-7" d="M673.91,1440c15.65,0,26.57-11.62,36.84-27.53l3.87,5.26c-16.12,34.81-35.87,50.49-64.77,50.49-36.88,0-65-29.1-65-82.15s34.92-85,71.65-85c28.18,0,41.77,15.47,56.81,44.37l-3.25,6.34c-12.77-15.4-22-23.19-35.33-23.19-19.71,0-34.75,18.35-34.75,56.82C640,1421.13,653.89,1440,673.91,1440Zm87.87,8.15v15.14L698.15,1467,694,1438V1330l1.91-3.52v-67.91l-22.82-3.25v-13.74l68.8-14.64,5.26,3.31-1.3,45.5v187.5L723.7,1439.6Z" transform="translate(-160.53 -412.77)"/><path class="cls-7" d="M929.19,1369.75a70.81,70.81,0,0,1-1.81,17.51H800.05v-17.18h61c15.62,0,19.67-5.84,19.67-20.35,0-21.36-10.22-31.94-22-31.94-13.55,0-25.89,14.75-25.89,61.74,0,39.68,19.65,57.58,44,57.58,17.54,0,29.61-7.32,39.45-17.47l11.24,10.56c-13.36,25.44-36.76,38-68.25,38-47.36,0-81.06-31-81.06-83.47,0-54.24,41.82-83.67,83.81-83.67C904.86,1301,929.19,1330.38,929.19,1369.75Z" transform="translate(-160.53 -412.77)"/><path class="cls-7" d="M995.89,1235.36l-54.54-5.81v-20.8h120.23v20.8l-52.63,5.81Zm130.63-26.61H1166l57.53,201.65L1201,1451.48l69-242.73h24.67L1218.59,1464h-37.86l-61.23-197.41,16.59-12.58-63.86,210h-37.74l-76.37-255.24h68.72l51.5,201.65-23.7,41.08Zm11.87,26.61-47.35-5.81v-20.8h116v20.8l-47.81,5.81Zm133.24,0-36.2-5.81v-20.8h81.88v20.8l-35.42,5.81Z" transform="translate(-160.53 -412.77)"/><path class="cls-7" d="M1391.33,1372.59c13.43-3.94,36.51-10,51.84-13.66v13.59c-15.35,3.87-32.9,8.64-42.43,13-14.73,6.22-24.32,17.17-24.32,32.48,0,16.3,8.57,23.84,19.55,23.84,6.22,0,11.32-2.59,21.72-10.19l13.08-9.81,3.38,4.72-13.66,14.84c-15.76,16.7-25.89,26.75-49.49,26.75-25.16,0-42.66-14.84-42.66-41.61C1328.34,1403.41,1341.15,1387.13,1391.33,1372.59Zm24.74,64v-81.46c0-28.83-5.59-37.34-26.36-37.34-8,0-16.31,1-30.46,4.68l22.41-12.67-2.36,22.58c-.82,21.64-11.33,30.37-23.87,30.37-11.6,0-19.39-5.58-21.92-16.3,1.72-27.07,27.91-45.42,74.77-45.42,41.73,0,58.23,17.64,58.23,61.22v73c0,6.42,2.68,9.51,7.34,9.51,3.42,0,6.06-1.75,9.87-7.15l8.62,5.75c-7.8,17.76-19.41,24.57-39.15,24.57C1431.07,1467.9,1418.88,1456.29,1416.07,1436.59Z" transform="translate(-160.53 -412.77)"/><path class="cls-7" d="M1511.76,1326.21l-29.54-5.77V1306h92.41v14.48l-29.6,5.77Zm35.53-20.25,42.54,115.76L1568,1457l51.21-151H1642l-60.39,157.82h-24.84L1491,1306Zm72.48,19.54-27.14-5.06V1306H1654v14.48l-26.76,5.06Z" transform="translate(-160.53 -412.77)"/><path class="cls-7" d="M1807.62,1369.75a70.84,70.84,0,0,1-1.8,17.51H1678.48v-17.18h61c15.62,0,19.67-5.84,19.67-20.35,0-21.36-10.22-31.94-22-31.94-13.55,0-25.89,14.75-25.89,61.74,0,39.68,19.65,57.58,44,57.58,17.54,0,29.62-7.32,39.45-17.47l11.24,10.56c-13.36,25.44-36.76,38-68.25,38-47.35,0-81.06-31-81.06-83.47,0-54.24,41.82-83.67,83.81-83.67C1783.29,1301,1807.62,1330.38,1807.62,1369.75Z" transform="translate(-160.53 -412.77)"/></g><polygon class="cls-8" points="885.24 223.81 840.95 314.91 829.08 339.32 756.33 488.95 685.56 339.32 674.01 314.91 630.92 223.81 603.92 223.81 756.04 545.38 912.38 223.81 885.24 223.81"/><path class="cls-9" d="M914,895.67l-10.59-22.39-20.26,14.24,10.59,22.38ZM838.49,736l-3.94-8.35-19.28-40.74-3.2,50.29,21.54,45.54,1.22-19.06,22.7,12.57-11.44-24.19Zm147.59,79.14-3.49,2.45L963,806.79l-10.68,22,8.06,4.46-15.54,10.92-22,45.32,41.23-29Z" transform="translate(-160.53 -412.77)"/><path class="cls-10" d="M994.72,741.58c-1.26,2.59-1.84,3.68-2.8,5.77-1.23,2.67-1,2.06-2.31,4.74h0l-6.12,12.58,19.76,15.18,10.89-22.4Z" transform="translate(-160.53 -412.77)"/><polygon class="cls-11" points="991.37 223.81 947.08 314.91 935.21 339.32 862.47 488.95 791.69 339.32 780.14 314.91 737.05 223.81 710.06 223.81 862.17 545.38 1018.51 223.81 991.37 223.81"/><path class="cls-12" d="M1020.13,895.67l-10.59-22.39-20.26,14.24,10.6,22.38ZM944.63,736l-4-8.35-19.27-40.74-3.21,50.29,21.54,45.54L941,763.71l22.71,12.57-11.45-24.19Zm147.58,79.14-3.48,2.45-19.58-10.83-10.68,22,8.06,4.46L1051,844.14l-22,45.32,41.22-29Z" transform="translate(-160.53 -412.77)"/><path class="cls-13" d="M1100.85,741.58c-1.26,2.59-1.84,3.68-2.8,5.77-1.23,2.67-1,2.06-2.3,4.74h0l-6.13,12.58,19.76,15.18,10.89-22.4Z" transform="translate(-160.53 -412.77)"/><circle class="cls-14" cx="665.96" cy="439.36" r="14.42"/><circle class="cls-15" cx="665.96" cy="439.36" r="14.42"/><g class="cls-16"><path class="cls-17" d="M826.49,865.11c-7.86-.4-14.6-7-13-15.39a13.23,13.23,0,0,1,25.91,0c1.66,8.34-5.1,15-13,15.39,0,0,0,.5,0,.5,17.18-.87,17.49-26.88,0-27s-17.17,26.08,0,27C826.48,865.61,826.5,865.11,826.49,865.11Z" transform="translate(-160.53 -412.77)"/></g><circle class="cls-18" cx="665.96" cy="439.36" r="14.42"/><g class="cls-19"><path class="cls-20" d="M840.91,851.53c-.37,7.85-6.3,14.4-14.42,14.4a13.8,13.8,0,1,1,0-27.59c8.12,0,14,6.55,14.42,14.4,0-.3,0-.83,0-1.21-.43-9.14-8.55-16.27-17.82-14-6.8,1.65-11,7.81-11,14.63,0,6.55,3.9,12.61,10.38,14.48,9.43,2.71,18-4.47,18.47-13.87C840.93,852.36,840.89,851.83,840.91,851.53Z" transform="translate(-160.53 -412.77)"/></g><circle class="cls-21" cx="952.81" cy="435.35" r="14.42"/><circle class="cls-22" cx="952.81" cy="435.35" r="14.42"/><g class="cls-16"><path class="cls-17" d="M1113.34,861.09c-7.86-.39-14.6-7-13-15.38a13.23,13.23,0,0,1,25.91,0c1.65,8.34-5.1,15-13,15.38a4.17,4.17,0,0,0,0,.5c17.18-.87,17.49-26.87,0-26.94s-17.17,26.08,0,26.94C1113.33,861.59,1113.35,861.1,1113.34,861.09Z" transform="translate(-160.53 -412.77)"/></g><circle class="cls-18" cx="952.81" cy="435.35" r="14.42"/><g class="cls-19"><path class="cls-20" d="M1127.76,847.52c-.37,7.85-6.3,14.4-14.42,14.4a13.8,13.8,0,1,1,0-27.6c8.12,0,14.05,6.56,14.42,14.4,0-.29,0-.82,0-1.2-.43-9.14-8.55-16.27-17.82-14-6.8,1.65-11,7.8-11,14.63,0,6.55,3.9,12.61,10.38,14.47,9.43,2.72,18-4.46,18.47-13.87C1127.78,848.35,1127.74,847.81,1127.76,847.52Z" transform="translate(-160.53 -412.77)"/></g></g></g></svg>